HIERARCHY
ROOT Hips
{
	OFFSET -14.64140 90.27770 -84.91600
	CHANNELS 6 Xposition Yposition Zposition Zrotation Xrotation Yrotation
	JOINT Spine
	{
		OFFSET 0.00000 13.20850 -1.60436
		CHANNELS 3 Zrotation Xrotation Yrotation
		JOINT Spine1
		{
			OFFSET 0.00000 8.61716 0.00000
			CHANNELS 3 Zrotation Xrotation Yrotation
			JOINT Spine2
			{
				OFFSET 0.00000 8.61717 0.00000
				CHANNELS 3 Zrotation Xrotation Yrotation
				JOINT Spine3
				{
					OFFSET 0.00000 8.61717 0.00000
					CHANNELS 3 Zrotation Xrotation Yrotation
					JOINT Neck
					{
						OFFSET 0.00000 11.07920 1.10792
						CHANNELS 3 Zrotation Xrotation Yrotation
						JOINT Neck1
						{
							OFFSET 0.00000 7.08032 0.00000
							CHANNELS 3 Zrotation Xrotation Yrotation
							JOINT Head
							{
								OFFSET 0.00000 7.08031 0.00000
								CHANNELS 3 Zrotation Xrotation Yrotation
								End site
								{
									OFFSET 0.00000 0.00000 0.00000
								}
							}
						}
					}
					JOINT RightShoulder
					{
						OFFSET -0.01000 7.91373 5.19711
						CHANNELS 3 Zrotation Xrotation Yrotation
						JOINT RightArm
						{
							OFFSET -18.41580 0.00000 0.00000
							CHANNELS 3 Zrotation Xrotation Yrotation
							JOINT RightForeArm
							{
								OFFSET -29.11090 0.00000 0.00000
								CHANNELS 3 Zrotation Xrotation Yrotation
								JOINT RightHand
								{
									OFFSET -24.65040 0.00000 0.00000
									CHANNELS 3 Zrotation Xrotation Yrotation
									JOINT RightHandThumb1
									{
										OFFSET -5.35114 -0.85590 3.97906
										CHANNELS 3 Zrotation Xrotation Yrotation
										JOINT RightHandThumb2
										{
											OFFSET -4.52789 0.00000 0.00000
											CHANNELS 3 Zrotation Xrotation Yrotation
											JOINT RightHandThumb3
											{
												OFFSET -2.46976 0.00000 0.00000
												CHANNELS 3 Zrotation Xrotation Yrotation
												End site
												{
													OFFSET 0.00000 0.00000 0.00000
												}
											}
										}
									}
									JOINT RightHandIndex1
									{
										OFFSET -14.26970 0.00000 2.88139
										CHANNELS 3 Zrotation Xrotation Yrotation
										JOINT RightHandIndex2
										{
											OFFSET -5.48836 0.00000 0.00000
											CHANNELS 3 Zrotation Xrotation Yrotation
											JOINT RightHandIndex3
											{
												OFFSET -3.01859 0.00000 0.00000
												CHANNELS 3 Zrotation Xrotation Yrotation
												End site
												{
													OFFSET 0.00000 0.00000 0.00000
												}
											}
										}
									}
									JOINT RightHandMiddle1
									{
										OFFSET -14.26970 0.00000 -0.09147
										CHANNELS 3 Zrotation Xrotation Yrotation
										JOINT RightHandMiddle2
										{
											OFFSET -6.17441 0.00000 0.00000
											CHANNELS 3 Zrotation Xrotation Yrotation
											JOINT RightHandMiddle3
											{
												OFFSET -3.56743 0.00000 0.00000
												CHANNELS 3 Zrotation Xrotation Yrotation
												End site
												{
													OFFSET 0.00000 0.00000 0.00000
												}
											}
										}
									}
									JOINT RightHandRing1
									{
										OFFSET -12.69180 0.00000 -3.06433
										CHANNELS 3 Zrotation Xrotation Yrotation
										JOINT RightHandRing2
										{
											OFFSET -5.62556 0.00000 0.00000
											CHANNELS 3 Zrotation Xrotation Yrotation
											JOINT RightHandRing3
											{
												OFFSET -3.56744 0.00000 0.00000
												CHANNELS 3 Zrotation Xrotation Yrotation
												End site
												{
													OFFSET 0.00000 0.00000 0.00000
												}
											}
										}
									}
									JOINT RightHandPinky1
									{
										OFFSET -11.11390 0.00000 -6.03719
										CHANNELS 3 Zrotation Xrotation Yrotation
										JOINT RightHandPinky2
										{
											OFFSET -4.52789 0.00000 0.00000
											CHANNELS 3 Zrotation Xrotation Yrotation
											JOINT RightHandPinky3
											{
												OFFSET -2.46976 0.00000 0.00000
												CHANNELS 3 Zrotation Xrotation Yrotation
												End site
												{
													OFFSET 0.00000 0.00000 0.00000
												}
											}
										}
									}
								}
							}
						}
					}
					JOINT LeftShoulder
					{
						OFFSET 0.01000 7.91373 5.19711
						CHANNELS 3 Zrotation Xrotation Yrotation
						JOINT LeftArm
						{
							OFFSET 18.41580 0.00000 0.00000
							CHANNELS 3 Zrotation Xrotation Yrotation
							JOINT LeftForeArm
							{
								OFFSET 29.11090 0.00000 0.00000
								CHANNELS 3 Zrotation Xrotation Yrotation
								JOINT LeftHand
								{
									OFFSET 24.65040 0.00000 0.00000
									CHANNELS 3 Zrotation Xrotation Yrotation
									JOINT LeftHandThumb1
									{
										OFFSET 5.35114 -0.85590 3.97906
										CHANNELS 3 Zrotation Xrotation Yrotation
										JOINT LeftHandThumb2
										{
											OFFSET 4.52789 0.00000 0.00000
											CHANNELS 3 Zrotation Xrotation Yrotation
											JOINT LeftHandThumb3
											{
												OFFSET 2.46977 0.00000 0.00000
												CHANNELS 3 Zrotation Xrotation Yrotation
												End site
												{
													OFFSET 0.00000 0.00000 0.00000
												}
											}
										}
									}
									JOINT LeftHandIndex1
									{
										OFFSET 14.26970 0.00000 2.88139
										CHANNELS 3 Zrotation Xrotation Yrotation
										JOINT LeftHandIndex2
										{
											OFFSET 5.48836 0.00000 0.00000
											CHANNELS 3 Zrotation Xrotation Yrotation
											JOINT LeftHandIndex3
											{
												OFFSET 3.01859 0.00000 0.00000
												CHANNELS 3 Zrotation Xrotation Yrotation
												End site
												{
													OFFSET 0.00000 0.00000 0.00000
												}
											}
										}
									}
									JOINT LeftHandMiddle1
									{
										OFFSET 14.26970 0.00000 -0.09147
										CHANNELS 3 Zrotation Xrotation Yrotation
										JOINT LeftHandMiddle2
										{
											OFFSET 6.17440 0.00000 0.00000
											CHANNELS 3 Zrotation Xrotation Yrotation
											JOINT LeftHandMiddle3
											{
												OFFSET 3.56744 0.00000 0.00000
												CHANNELS 3 Zrotation Xrotation Yrotation
												End site
												{
													OFFSET 0.00000 0.00000 0.00000
												}
											}
										}
									}
									JOINT LeftHandRing1
									{
										OFFSET 12.69180 0.00000 -3.06433
										CHANNELS 3 Zrotation Xrotation Yrotation
										JOINT LeftHandRing2
										{
											OFFSET 5.62556 0.00000 0.00000
											CHANNELS 3 Zrotation Xrotation Yrotation
											JOINT LeftHandRing3
											{
												OFFSET 3.56744 0.00000 0.00000
												CHANNELS 3 Zrotation Xrotation Yrotation
												End site
												{
													OFFSET 0.00000 0.00000 0.00000
												}
											}
										}
									}
									JOINT LeftHandPinky1
									{
										OFFSET 11.11390 0.00000 -6.03719
										CHANNELS 3 Zrotation Xrotation Yrotation
										JOINT LeftHandPinky2
										{
											OFFSET 4.52789 0.00000 0.00000
											CHANNELS 3 Zrotation Xrotation Yrotation
											JOINT LeftHandPinky3
											{
												OFFSET 2.46976 0.00000 0.00000
												CHANNELS 3 Zrotation Xrotation Yrotation
												End site
												{
													OFFSET 0.00000 0.00000 0.00000
												}
											}
										}
									}
								}
							}
						}
					}
					JOINT pCube4
					{
						OFFSET 0.00000 10.91090 1.10792
						CHANNELS 3 Zrotation Xrotation Yrotation
						End site
						{
							OFFSET 0.00000 0.00000 0.00000
						}
					}
				}
			}
		}
	}
	JOINT RightUpLeg
	{
		OFFSET -9.98441 0.00000 0.00000
		CHANNELS 3 Zrotation Xrotation Yrotation
		JOINT RightLeg
		{
			OFFSET 0.00000 -42.11790 0.00000
			CHANNELS 3 Zrotation Xrotation Yrotation
			JOINT RightFoot
			{
				OFFSET 0.00000 -45.00020 -0.00001
				CHANNELS 3 Zrotation Xrotation Yrotation
				JOINT RightForeFoot
				{
					OFFSET 0.00000 -3.74820 0.00000
					CHANNELS 3 Zrotation Xrotation Yrotation
					JOINT RightToeBase
					{
						OFFSET 0.00000 0.06325 14.43120
						CHANNELS 3 Zrotation Xrotation Yrotation
						End site
						{
							OFFSET 0.00000 0.00000 0.00000
						}
					}
				}
			}
		}
	}
	JOINT LeftUpLeg
	{
		OFFSET 9.98441 0.00000 0.00000
		CHANNELS 3 Zrotation Xrotation Yrotation
		JOINT LeftLeg
		{
			OFFSET 0.00000 -42.11800 0.00000
			CHANNELS 3 Zrotation Xrotation Yrotation
			JOINT LeftFoot
			{
				OFFSET 0.00000 -45.00070 0.00000
				CHANNELS 3 Zrotation Xrotation Yrotation
				JOINT LeftForeFoot
				{
					OFFSET 0.00000 -3.74824 0.00000
					CHANNELS 3 Zrotation Xrotation Yrotation
					JOINT LeftToeBase
					{
						OFFSET 0.00000 0.06325 14.43110
						CHANNELS 3 Zrotation Xrotation Yrotation
						End site
						{
							OFFSET 0.00000 0.00000 0.00000
						}
					}
				}
			}
		}
	}
}
MOTION
Frames: 4
Frame Time: 0.050000
0.01164862219700634 -0.04423685066077328 -0.018426152483589496 0.007714950005537086 0.006368561270308455 0.03186309179346112 2.0442615910211184 4.488693560967697 -1.4158756261126544 -0.6429547492297668 3.868328753139429 0.4122990006200381 -0.6867601364069427 -1.302653855882627 1.3971923330335874 -0.6918124922530557 -0.21745227162726033 -0.28695765311217564 -0.019661486032648036 13.968565420743555 -1.205113816538884 0.11134587208820713 -0.5596080025368277 -4.565109109157724 0.6496373256841349 -16.737651175554255 -0.40911403253291767 -7.367071005577587 2.8372507926144586 -14.82826541234805 74.52737978930305 11.0034742308034 19.605514807947106 6.897588289063076 -3.9279840009342246 86.83523572824068 21.647041112574286 -0.5329647173388852 -4.534491985286413 4.511110048728012 -0.1019440628015765 -1.5953503641370708 0.013491923270405236 0.004544306190323783 -56.23528188724778 -0.039570464926380715 0.009942484350750373 -56.19658740603096 -38.78463915136897 -0.03414369331319941 0.01239269868712295 0.014367445239942567 -0.03232331327218559 -0.012689358956755575 -0.015499350226400338 0.006923616777114898 -0.027559558389431887 -36.659283465021495 -0.008771511632360632 0.038979352746017534 -0.011093709214464795 0.025358600515545435 0.0060973301806059215 -0.0016763621358388825 -0.039223448003707306 -0.04458845485007965 -19.781199845172335 -0.04535975170356819 -0.025250753859904333 -0.015143113286080031 -0.04135212740002637 -0.03856392199874661 0.004669321911233963 0.00012165910814470144 0.01921399853180463 24.05244282219534 -0.03114223751403775 -0.03718870230538347 28.834673755840925 0.009489906367095237 0.025149412549133433 28.817666647934086 0.008197018408721444 -0.0019094006018594756 7.408785714054284 2.0096976397952595 13.689498439849972 -72.25885691095421 21.54639607634035 -14.990135375707306 -7.415734725545309 1.8262486881989626 -72.10726282786707 -20.677766088135535 4.0568168587388564 -3.175286209286849 -0.47598957614471515 0.10770763519322474 -8.088479545611788 -0.008635448116683025 -0.009033262016996111 44.60240477136559 0.02316583774053232 0.017187174401797796 44.550297594035136 12.41387515893358 0.008862264332883616 0.009529174035222125 -0.022308071074641576 0.030472118964344864 0.0028566435898865245 -0.015578233652369435 -0.03408381930514929 0.023686662032808278 11.126552680350475 0.047329684612624615 -0.001188586355961649 0.003981899929253614 0.04281323602677051 0.04478216930489849 -0.04636976554150474 -0.014974630114846843 -0.004647484448960434 4.759933326420171 0.01483373035941143 0.04081418646998043 0.007131380366702128 -0.026065092835782358 0.045511554657962604 -0.025075879245763752 -0.02429874854140517 0.013227590948000644 -5.615098526178413 0.002973305574780581 -0.013274147142019629 -6.756880655212294 0.04661846098043294 0.02014575906911743 -6.719274192000152 -0.023840165412143826 -0.039952882224969365 0.011707969733073309 0.04371193193314214 0.01314464919698954 8.012842672661947 3.469906350782076 -19.175732738805266 -0.025835753283006684 10.345784810488496 0.00017606725679071566 -5.662684141322416 -15.618666584150462 3.1718901473302097 0.02264146129947296 0.03619866167775228 -0.02224653624924937 -0.03887924770782407 4.692683885537706 0.04250882709971469 12.42706577253365 -8.271166568419451 6.931670921395869 -0.03448750111909976 46.388551568772336 -0.024560439673282156 -4.374548044174784 -14.732996382799291 -3.826315565073894 -0.038985341046594894 0.0070978401317491795 -0.022840866638496393 0.011808046754399082 -10.753692289987033 0.0012545048321308805 
-0.019854991486700502 -0.0017712014798939857 0.012007880249978505 -0.04981602268420037 0.03174311771996205 0.049769420345925804 2.0276707330477475 4.577889833189275 -1.4252124608857013 -0.6011755460457192 3.8391894065037033 0.3286930399029345 -0.7221481320865697 -1.2132960479550605 1.4149152027238998 -0.6201510034081495 -0.1744007713110913 -0.2657496884984264 0.07468414845710544 13.774352998432407 -1.3833496159214014 0.09882435534810761 -0.5687802053593337 -4.943594740552373 0.6909329242840011 -16.62881826424272 -0.38356023276940665 -7.01919431727643 2.696040020671972 -14.95294116654577 73.81888280465813 12.23357275220591 18.055790504201113 5.98223169085716 -3.9216693253217256 87.52195859311531 21.749821044486968 -0.5431173331915786 -4.753651059865835 4.5635261325938865 -0.12394682387782771 -1.6263028672721027 -0.003573579802475055 -0.03120644584164516 -56.20000541197414 -0.046661639349426444 0.04025686463814371 -56.27821285640696 -38.733897111059086 0.02608470779601506 0.0235142557703975 -0.021416489207272314 -0.008051708667755179 -0.029078246583981292 0.00958876086492865 0.0037601608984682428 0.00017336372865515542 -36.69614593262009 0.021116367027022815 -0.022348902776547965 0.021704344902351222 0.04741269458757609 -0.039475888165617486 -0.024433260825914703 0.0376362615723113 0.04256617146754964 -19.75248171748779 0.028851520854160442 -0.016606426682145556 0.026767826509366575 -0.003488781761680404 0.02659732037685203 0.035465129937177646 0.03204687459826149 -0.031942495258249756 24.047251316341026 -0.043779035713806515 -0.039165841024864013 28.889841981683176 -0.018196365872785995 0.0036925866102508827 28.89868575713356 0.011229153050110682 -0.0012388956378178448 6.970033884644814 1.893863193225489 13.711141111335278 -72.1168760634123 22.124520064416426 -13.813952557572652 -6.826289484682381 2.4974991649970217 -71.35585270848026 -20.828409015092475 4.3439701875914665 -3.230608807869663 -0.5075347155315814 0.018066683320981713 -8.115551333952634 0.014103720298524037 -0.015606634643687677 44.53237358684651 -0.049702502128829526 0.015011070206905001 44.58132695601416 12.490768326612386 -0.02820919835839554 0.028787288562887644 0.021967550260545136 -0.012024537085602804 0.04459221140081833 0.004782517483906451 -0.012745091568978368 -0.007627305964186382 11.12450271960929 -0.020514325131480125 0.02524135326961318 -0.003228158360547498 0.008557901127408483 -0.044337466344092864 0.012003408450879827 0.02530689311188645 -0.0032299645361206614 4.773405554909253 -0.04196348240200656 -0.00032483668799356945 0.022826070570585253 -0.021379544612372278 0.02905256018012185 0.03957611038680459 -0.03735599334185436 -0.01004410178425464 -5.610579940025427 0.033748340852055074 -0.016383652168459377 -6.704615391068953 0.04347205503893231 0.031150040950686884 -6.721323952879879 0.03417280797829135 0.043261200828374986 0.007769392835866853 0.005095208374183303 0.04368091284714604 8.034230335367633 3.5390852505509085 -19.204402993153245 -0.007202264055690705 10.410520927557604 -0.01656639110836148 -5.610302042435748 -15.697516419518042 3.206368594543491 0.022520108225274862 -0.005602282315699896 0.024621701186970813 0.018868944645422703 4.715215094642551 0.04545548013146398 12.447516367698352 -8.205252296843286 6.900539043632619 0.004610582718626914 46.40301693644565 -0.04813681143594743 -4.328514832009585 -14.753213051324076 -3.863724077673884 -0.011145819923955903 -0.007116193499542842 -0.011114412310163921 0.03276116718447297 -10.69942332293682 -0.007800647678399223 
0.03286309525570785 -0.019409280247755005 0.03812978260359945 0.034423161535336526 0.042073019455303805 -0.045250096803742534 2.1656745293715844 4.655016298727056 -1.4786796223744096 -0.6083679775191957 3.850452615720473 0.36399479824823633 -0.718179182636174 -1.1802260644027849 1.4067101917379827 -0.5097765614363579 -0.17573642783756704 -0.353025488136101 0.05767748965486762 13.699609597844516 -1.529745345172153 0.10044961442478964 -0.4488725368502588 -5.352541776888618 0.7088452878824911 -16.36135565635386 -0.44615663757053114 -6.610968629056945 2.6399287534588307 -15.022997187334681 73.36446325477189 13.368796200555057 15.909498535140209 4.9964306198130775 -3.0780500096717263 85.94897181805177 22.313100362195872 -0.5558238615347512 -4.896200896717249 4.550982141132698 -0.13900934393484948 -1.625600358268897 0.015964471948936368 -0.0072424075251733295 -56.22269902719757 -0.017117122997956556 -0.021963206029859673 -56.259060180256135 -38.799899082764014 0.00462532571009827 -0.022527203194479792 0.01814832339768872 -0.01595194295461153 -0.010401566280684412 0.002672178857483417 0.024713733767312663 0.013479150582663517 -36.64428550686057 -0.018423793653854194 -0.03782060826353849 -0.041078746922376515 0.0022958951177055645 0.044729652332508835 -0.0068543653917905985 -0.03436145038245612 0.003965240841852859 -19.767136571141215 0.03466958061742902 0.005108429455833281 -0.02233861501128718 0.008063071159935813 -0.035973684803087054 0.014626590281302827 -0.01758657557707253 -0.04220581128027616 24.062890868413277 0.03353564665173074 0.04811707148043593 28.882521943357908 0.0014168259082269488 -0.04844720530979796 28.83827598990736 0.028570182165217933 0.005550211046901984 6.5182781548884385 1.8301525621156272 13.79096235583791 -71.75375925749037 22.377825735184103 -12.704496351955562 -5.504330325701499 3.2748774678304113 -69.30309254866954 -20.963564939875848 4.695606591373373 -3.3125964650930273 -0.4543724841717177 0.05688846920319453 -8.092946297035105 0.00858555202629496 -0.021354304821048838 44.574325725880534 -0.04271606911947513 0.03336431018774812 44.56884636437509 12.50480359190874 -0.017531764038799975 -0.04404496018312997 -0.0006976200985870892 -0.004956178696044485 -0.004318949514338195 -0.021340825317093724 -0.027835615651840617 -0.026708076659912476 11.128309341697909 -0.010405806388316898 -0.011552147293418313 0.0043692121042732575 -0.007616548090561932 0.020551796753839578 -0.03655920808834808 -0.02803467750222594 -0.03231486002484889 4.7600968376111705 0.014199953649170524 0.023016066285040004 -0.020744440571195413 -0.031542730921398 0.04916417364361736 -0.04165691516032958 0.003486522950537866 -0.00972810360686427 -5.631474113040976 -0.0030747497602549396 -0.02672668109782747 -6.73183090610348 0.039354133634439514 -0.02455829997113516 -6.684755671687721 -0.037763339137612206 -0.018870999938374967 -0.01967105459959701 0.0015053841164256144 -0.03854118442362385 8.040678289639425 3.485952468004963 -19.24661194862657 -0.035928043199442754 10.40472126472104 -0.005138207019658631 -5.659678025177118 -15.654357882038893 3.154391086727637 0.028828392244912886 0.01910099478751732 -0.012754168186987679 -0.01299799859492371 4.695098098582732 0.03209215344478893 12.474172362110517 -8.263888869730133 6.896322876546909 -0.004017671199145148 46.339358551534836 0.012161798144991859 -4.3420099701672505 -14.75867645636111 -3.8735408479503977 0.015308347838164454 -0.028124090314254405 -0.009379460160479214 0.046713424654778415 -10.744690910445236 0.007266264310098448 
-0.018680149994063557 0.014263916821058466 -0.004343118875131143 -0.002284669406529996 -0.013803787200546747 -0.0010460989010001851 2.096589245169635 4.62979779424895 -1.479197528609988 -0.6020336060889417 3.840766154172596 0.38326756374271004 -0.7268484384503813 -1.1335445746840465 1.2576915718986716 -0.39662995498255416 -0.13235983187848874 -0.29700277734194136 0.11501579675362386 13.50286903440007 -1.6599798908393766 0.18038860014204217 -0.3871554214853155 -5.490861442856816 0.7510647249452683 -16.15061604022148 -0.48656302711574856 -6.119947961725902 2.435931485915148 -15.169227672103945 72.84522016358464 14.496130141312124 13.231472462804254 4.142862507405998 -1.5957871536053245 82.97107709920269 23.454931294897424 -0.48061554177433075 -4.965974050016158 4.542346026971459 -0.07798249360022946 -1.5824523038723275 0.028069052680805655 5.252948940026778e-05 -56.239115143172874 -0.03315806492862436 -0.046050336919720936 -56.23231044828125 -38.80417430358567 -0.013766628261584504 -0.010584363211554707 0.0050756075087399375 0.049989447602520096 0.015440482403900963 -0.030703347230086157 0.009758718256419758 -0.03458665323414772 -36.73669184698482 0.03703176866954488 -0.005050681441815699 -0.04415844912583323 0.018991746537639673 0.020675329553291783 0.024519371518135376 -0.0016248180156370295 0.014955645003384537 -19.744639536058116 -0.012023633764830491 -0.02700654861750568 0.03369013060494339 -0.01612004425812067 -0.002993052607896461 -0.01847204312192402 0.0020461232940030367 0.01599211180050342 24.05600810433437 0.0011651212780113237 0.02263732708267917 28.882056119126084 -0.04250644978805138 -0.01964077280270238 28.818273018947103 0.025643009963429064 0.032824505428487964 6.138917541468281 1.8249770980673512 13.81285121269867 -71.4800358332808 22.65203222419627 -11.636351315288683 -4.158184861814691 3.6999194972203853 -67.56752316934654 -21.28489592494855 5.20308265856448 -3.558646582096349 -0.5119596296351532 0.03741400378074434 -8.133101001932808 0.04310614022592817 0.032785542257095915 44.56267172057491 -0.002290447335999883 -0.013906862249004795 44.61555601128253 12.422174180565392 0.001336071053363032 -0.014776074621709849 -0.04938991584708092 0.043653062147894155 -0.017473790698758415 0.035767512558936974 0.003496021437873133 0.030993153684028545 11.078047461766447 -0.035522846365626644 -0.03036166237954046 0.04981624888228013 -0.030111652873880446 0.02013227152495621 0.00977371474820606 0.011442313957843266 0.023215968440179882 4.761402122790623 0.04377111278631305 -0.011678097893176174 -0.047743278939301186 0.014196428998940842 -0.014091511311584946 0.01221764850433182 0.04086207848452991 0.015723982334693447 -5.639451714513956 -0.02146127090586833 -0.0240057965559711 -6.750130102739872 -0.013466864318034797 -0.033975064597456237 -6.7236715247667425 -0.022104272037013865 0.03287251659123554 -0.015547458844021207 -0.016470154565804737 0.03591728508699627 8.029248074980883 3.4919432794186087 -19.258675776551073 0.002684557247710703 10.418985548782018 0.001545473906926758 -5.621937775993065 -15.63322683398378 3.1762162820409117 0.014412518700064878 -0.021603788836354804 -0.03268903059076726 -0.047788285427656924 4.703500810710901 0.03861013026129707 12.486269773547315 -8.213790430405743 6.908394924644522 -0.027618906280464036 46.39288015692023 -0.005786974077472977 -4.286037773480448 -14.762483020473182 -3.8244387567013907 0.01998954561321049 -0.024388802931991867 0.031522196989855714 0.013298534882737714 -10.719625272881633 -0.03295418135068836 
